<?xml version="1.0" encoding="utf-8"?>
<!-- Generator: Adobe Illustrator 21.0.0, SVG Export Plug-In . SVG Version: 6.00 Build 0)  -->
<svg version="1.1" id="Calque_1" xmlns="http://www.w3.org/2000/svg" xmlns:xlink="http://www.w3.org/1999/xlink" x="0px" y="0px"
	 viewBox="0 0 917 672" style="enable-background:new 0 0 917 672;" xml:space="preserve">
<style type="text/css">
	.st0{fill:#FBA919;}
</style>
<g>
	
		<ellipse transform="matrix(1 -3.327252e-03 3.327252e-03 1 -1.6608 2.2784)" class="st0" cx="683.9" cy="500.3" rx="31.1" ry="31.1"/>
	
		<ellipse transform="matrix(1 -3.327252e-03 3.327252e-03 1 -1.6679 0.8522)" class="st0" cx="255.3" cy="501.7" rx="31.1" ry="31.1"/>
	<path class="st0" d="M861.8,187.2h-76.5c-3.2,0-5.8-2.6-5.9-5.8l-0.5-99.1c0-3.2-2.6-5.8-5.9-5.8h-19.9c-3.2,0-5.9,2.6-5.9,5.9v99
		c0,3.2-2.6,5.9-5.9,5.9h-36.8c-3.2,0-5.9-2.6-5.9-5.9v-30.8c0-1.4-0.5-2.8-1.4-3.8L675.1,121c-1.2-1.4-3.3-1.4-4.5,0l-22.2,25.7
		c-0.9,1.1-1.4,2.4-1.4,3.8v30.8c0,3.2-2.6,5.9-5.9,5.9H536.3c-3.2,0-5.9-2.6-5.9-5.9V55c0-3.3-2.7-5.9-6-5.9l-45.9,0.8
		c-3.2,0.1-5.8,2.7-5.8,5.9l0.7,125.4c0,3.2-2.6,5.9-5.9,5.9h-27.2c-3.2,0-5.9-2.6-5.9-5.9v-7.7c0-3.2-2.6-5.9-5.9-5.9h-14.4
		c-3.2,0-5.9-2.6-5.9-5.9v-52.4c0-3.2-2.6-5.9-5.9-5.9h-20.3c-3.2,0-5.9-2.6-5.9-5.9v-32c0-1.1-0.3-2.1-0.8-3l-16.5-27.3
		c-1.1-1.8-3-2.8-5-2.8H338c-3.2,0-5.9,2.6-5.9,5.9v142.9c0,3.2-2.6,5.9-5.9,5.9l0,0c-3.2,0-5.8-2.6-5.9-5.8l-1.3-155.5
		c0-3.2-2.6-5.8-5.9-5.8h-8.1c-3.2,0-5.9,2.6-5.9,5.9v44.7c0,3.2-2.6,5.9-5.9,5.9h-19.9c-3.2,0-5.9,2.6-5.9,5.9v99
		c0,3.2-2.6,5.9-5.9,5.9H225c-3.2,0-5.9-2.6-5.9-5.9v-30.8c0-1.4-0.5-2.8-1.4-3.8L195.5,121c-1.2-1.4-3.3-1.4-4.5,0l-22.2,25.7
		c-0.9,1.1-1.4,2.4-1.4,3.8v30.8c0,3.2-2.6,5.9-5.9,5.9h-33.2c-3.2,0-5.9-2.6-5.9-5.9v-66c0-3.2-2.6-5.9-5.9-5.9h-15.6
		c-3.2,0-5.9,2.6-5.9,5.9l0.2,66c0,3.2-2.6,5.9-5.9,5.9H53.2c-18.6,0-33.7,15.1-33.7,33.7v286c0,21.8,17.7,39.5,39.5,39.5h176.6
		c-17-7.6-28.9-24.6-29-44.4c-0.1-26.9,21.7-48.8,48.6-48.9c26.9-0.1,48.8,21.7,48.9,48.6c0.1,20-11.9,37.1-29,44.7h392.7
		c-18.9-6.7-32.5-24.6-32.6-45.8c-0.1-26.9,21.7-48.8,48.6-48.9c26.9-0.1,48.8,21.7,48.9,48.6c0.1,21.3-13.5,39.5-32.6,46.2h161.5
		c21.8,0,39.5-17.7,39.5-39.5V226.7C901.3,204.8,883.6,187.2,861.8,187.2z M781.2,496.2c-0.8,1.1-5.1,3.8-16.1,6.9
		c-7.7,2.2-16.8,4-22.1,4.4c0,0-0.1,0-0.2,0c0.9-4.2,1.3-8.4,1.3-12.7c-0.1-33.2-27.1-60.1-60.2-60.3c-0.1,0-0.3,0-0.4,0
		c-33.3,0.1-60.4,27.3-60.2,60.7c0,4.9,0.6,9.7,1.8,14.4c-8-0.5-33.7-2.1-52-4.2c-20.2-2.3-28.2-1.9-29.7-1.8l-227.1-1.8
		c0.2-1.9,0.3-3.8,0.2-5.6c-0.1-16.1-6.4-31.3-17.8-42.7c-11.4-11.3-26.4-17.5-42.4-17.6c-0.1,0-0.3,0-0.4,0
		c-16.1,0.1-31.3,6.4-42.7,17.9c-11.4,11.5-17.6,26.7-17.6,42.8c0,1.4,0.1,2.8,0.2,4.2l-49-0.4c0,0-0.1,0-0.1,0
		c-2.1,0.1-7-0.5-9.1-2.5c-0.6-0.6-0.9-1.3-0.9-2.3c0-7.7,0.5-27,0.6-31.8c0.4-0.1,1-0.3,2-0.4c1.3-0.1,2.5-1,3.1-2.2
		c0.9-1.9,0.7-4.5,0.3-11.3c-0.7-11.7-2.1-36.2,1.2-79.3c4.6-59.7,12.8-102.3,13.5-105.9c0.4-1.2,1.5-2.9,2.2-2.8
		c0.2,0,5.8,0.1,93.4,0.4h0l205.7,1.2c63.6,0.3,85.7,0.4,86.4,0.4c0,0,0.1,0,0.1,0c0.3,0,30.7-0.7,50.4,14.1
		c0.8,0.6,1.7,1.3,2.7,2.1l96.2,87c0.7,0.6,1.6,1,2.5,1c0,0,0,0,0,0l6.1,0l42.7,20.1c4.4,2.2,16.9,9.1,21.5,15.3
		c4.1,5.4,9,28.9,11.1,42.5c0.1,0.5,0.3,1,0.6,1.5c1.3,2,4.6,8,4.9,12.1C784.6,470.2,784,492.3,781.2,496.2z"/>
	<g>
		<g>
			<g>
				<path class="st0" d="M28.5,569.2h24.6l18.6,54.7H72l17.6-54.7h24.6v79.6H97.9v-56.4h-0.2l-19.5,56.4H64.6l-19.5-55.9h-0.2v55.9
					H28.5V569.2z"/>
				<path class="st0" d="M127.3,608.9c0.9-14.8,14.2-19.3,27.1-19.3c11.5,0,25.3,2.6,25.3,16.4v30c0,5.2,0.6,10.5,2,12.8h-16.1
					c-0.6-1.8-1-3.7-1.1-5.6c-5,5.2-12.4,7.1-19.4,7.1c-10.9,0-19.6-5.5-19.6-17.3c0-13,9.8-16.2,19.6-17.5
					c9.7-1.4,18.7-1.1,18.7-7.6c0-6.8-4.7-7.8-10.3-7.8c-6,0-9.9,2.5-10.5,8.7H127.3z M163.9,620.6c-2.7,2.3-8.2,2.5-13.2,3.3
					c-4.9,1-9.4,2.7-9.4,8.5c0,5.9,4.6,7.4,9.7,7.4c12.4,0,12.8-9.8,12.8-13.3V620.6z"/>
				<path class="st0" d="M246,648.8H231v-8h-0.3c-4,6.5-10.9,9.6-17.6,9.6c-16.8,0-21.1-9.5-21.1-23.7v-35.5h15.8v32.6
					c0,9.5,2.8,14.2,10.1,14.2c8.6,0,12.3-4.8,12.3-16.5v-30.2H246V648.8z"/>
				<path class="st0" d="M289.9,648.8h-17.6l-19.7-57.6h16.6l12.2,39.4h0.2l12.2-39.4h15.7L289.9,648.8z"/>
				<path class="st0" d="M315.4,608.9c0.9-14.8,14.2-19.3,27.1-19.3c11.5,0,25.3,2.6,25.3,16.4v30c0,5.2,0.6,10.5,2,12.8h-16.1
					c-0.6-1.8-1-3.7-1.1-5.6c-5,5.2-12.4,7.1-19.4,7.1c-10.9,0-19.6-5.5-19.6-17.3c0-13,9.8-16.2,19.6-17.5
					c9.7-1.4,18.7-1.1,18.7-7.6c0-6.8-4.7-7.8-10.3-7.8c-6,0-9.9,2.5-10.5,8.7H315.4z M351.9,620.6c-2.7,2.3-8.2,2.5-13.2,3.3
					c-4.9,1-9.4,2.7-9.4,8.5c0,5.9,4.6,7.4,9.7,7.4c12.4,0,12.8-9.8,12.8-13.3V620.6z"/>
				<path class="st0" d="M396.3,582.2h-15.8v-13h15.8V582.2z M380.5,591.2h15.8v57.6h-15.8V591.2z"/>
				<path class="st0" d="M421,630.1c0.1,6.9,5.9,9.7,12.2,9.7c4.6,0,10.4-1.8,10.4-7.4c0-4.8-6.6-6.5-17.9-8.9
					c-9.1-2-18.3-5.2-18.3-15.4c0-14.7,12.7-18.5,25.1-18.5c12.6,0,24.2,4.2,25.4,18.4h-15.1c-0.4-6.1-5.1-7.8-10.8-7.8
					c-3.6,0-8.8,0.7-8.8,5.4c0,5.7,8.9,6.5,17.9,8.6c9.3,2.1,18.3,5.5,18.3,16.2c0,15.2-13.2,20.1-26.3,20.1
					c-13.4,0-26.4-5-27.1-20.3H421z"/>
				<path class="st0" d="M481.7,623.8c0.4,10,5.4,14.6,14.2,14.6c6.4,0,11.5-3.9,12.5-7.5h13.9c-4.5,13.6-13.9,19.4-27,19.4
					c-18.2,0-29.4-12.5-29.4-30.3c0-17.3,11.9-30.4,29.4-30.4c19.6,0,29.1,16.5,28,34.2H481.7z M507.4,613.8
					c-1.4-8-4.9-12.3-12.6-12.3c-10,0-12.9,7.8-13.2,12.3H507.4z"/>
				<path class="st0" d="M563.6,591.2h15.1v10.7h0.2c2.9-7.2,10.7-12.3,18.4-12.3c1.1,0,2.5,0.2,3.5,0.6v14.7
					c-1.4-0.3-3.8-0.6-5.7-0.6c-11.6,0-15.6,8.4-15.6,18.5v26h-15.8V591.2z"/>
				<path class="st0" d="M633,589.6c18.2,0,29.9,12,29.9,30.4c0,18.3-11.7,30.3-29.9,30.3c-18.1,0-29.8-12-29.8-30.3
					C603.2,601.6,614.9,589.6,633,589.6z M633,638.4c10.8,0,14-9.3,14-18.4c0-9.3-3.2-18.5-14-18.5c-10.7,0-13.9,9.3-13.9,18.5
					C619,629.2,622.3,638.4,633,638.4z"/>
				<path class="st0" d="M727.2,648.8h-15.1v-8h-0.3c-4,6.5-10.9,9.6-17.6,9.6c-16.8,0-21.1-9.5-21.1-23.7v-35.5h15.8v32.6
					c0,9.5,2.8,14.2,10.1,14.2c8.6,0,12.3-4.8,12.3-16.5v-30.2h15.8V648.8z"/>
				<path class="st0" d="M759.3,591.2h11.6v10.6h-11.6v28.5c0,5.4,1.3,6.7,6.7,6.7c1.7,0,3.2-0.1,4.9-0.4v12.4
					c-2.7,0.4-6.1,0.6-9.3,0.6c-9.7,0-18.2-2.2-18.2-13.7v-34h-9.6v-10.6h9.6v-17.3h15.8V591.2z"/>
				<path class="st0" d="M791.5,623.8c0.4,10,5.4,14.6,14.2,14.6c6.4,0,11.5-3.9,12.5-7.5h13.9c-4.5,13.6-13.9,19.4-27,19.4
					c-18.2,0-29.4-12.5-29.4-30.3c0-17.3,11.9-30.4,29.4-30.4c19.6,0,29.1,16.5,28,34.2H791.5z M817.3,613.8
					c-1.4-8-4.9-12.3-12.6-12.3c-10,0-12.9,7.8-13.2,12.3H817.3z"/>
				<path class="st0" d="M874.2,631.6h17.5v17.2h-17.5V631.6z M891.2,590.6l-4.3,34.3h-7.9l-4.2-34.3v-21.4h16.5V590.6z"/>
			</g>
		</g>
		<g>
			<g>
				<path class="st0" d="M373.2,428h-38.1v-16.7l39.1-52.5h16.4v54.2h12V428h-12v20.9h-17.4V428z M373.2,381.6h-0.4l-23.3,31.3h23.7
					V381.6z"/>
				<path class="st0" d="M440.3,356.9c18,0,33.2,11.3,33.2,46.5c0,35.9-15.2,47.3-33.2,47.3c-17.8,0-33-11.3-33-47.3
					C407.3,368.2,422.5,356.9,440.3,356.9z M440.3,435.6c14.9,0,14.9-22,14.9-32.2c0-9.4,0-31.4-14.9-31.4
					c-14.7,0-14.7,22-14.7,31.4C425.6,413.5,425.6,435.6,440.3,435.6z"/>
				<path class="st0" d="M516.4,428h-38.1v-16.7l39.1-52.5h16.4v54.2h12V428h-12v20.9h-17.4V428z M516.4,381.6H516l-23.3,31.3h23.7
					V381.6z"/>
			</g>
		</g>
		<g>
			<g>
				<path class="st0" d="M337.3,296h39.4v4.7h-34.3v16.8h33v4.7h-33v18.6h34.8l0.1,4.7h-40L337.3,296z"/>
				<path class="st0" d="M383.4,309.4h5.1v8.3h0.1c0.5-1.1,1-2.2,1.7-3.3c0.7-1.1,1.6-2.1,2.7-3c1.1-0.9,2.4-1.6,3.9-2.2
					c1.5-0.6,3.4-0.9,5.5-0.9c1.3,0,2.4,0.1,3.1,0.3v5.3c-1.6-0.3-3.2-0.4-4.7-0.4c-1.4,0-2.8,0.2-4.3,0.7c-1.5,0.5-2.8,1.2-4,2.3
					c-1.2,1.1-2.2,2.5-2.9,4.2c-0.8,1.8-1.1,3.9-1.1,6.5l0.1,18.4h-5.1L383.4,309.4z"/>
				<path class="st0" d="M409.1,309.4h5.1v8.3h0.1c0.5-1.1,1-2.2,1.7-3.3c0.7-1.1,1.6-2.1,2.7-3c1.1-0.9,2.4-1.6,3.9-2.2
					c1.5-0.6,3.4-0.9,5.5-0.9c1.3,0,2.4,0.1,3.1,0.3v5.3c-1.6-0.3-3.2-0.4-4.7-0.4c-1.4,0-2.8,0.2-4.3,0.7c-1.5,0.5-2.8,1.2-4,2.3
					c-1.2,1.1-2.2,2.5-2.9,4.2c-0.8,1.8-1.1,3.9-1.1,6.5l0.1,18.4h-5.1L409.1,309.4z"/>
				<path class="st0" d="M472.6,334c-0.5,1.6-1.2,3.2-2.2,4.7c-1,1.5-2.2,2.8-3.8,4c-1.6,1.2-3.4,2.1-5.7,2.8
					c-2.2,0.7-4.8,1.1-7.8,1.1c-3.7,0-6.8-0.6-9.3-1.8c-2.5-1.2-4.5-2.7-6-4.5c-1.5-1.8-2.6-3.9-3.3-6.1c-0.7-2.3-1-4.5-1-6.7
					c0-2.5,0.4-4.9,1.2-7.2c0.8-2.3,2-4.4,3.6-6.1c1.6-1.8,3.7-3.2,6.1-4.2c2.5-1,5.4-1.6,8.7-1.6c2.3,0,4.7,0.3,7.1,0.9
					c2.4,0.6,4.6,1.7,6.6,3.2c2,1.5,3.6,3.6,4.8,6.2s1.9,6,1.9,10.1h-34.8c0,1.9,0.3,3.7,1,5.3c0.6,1.6,1.6,3.1,2.8,4.3
					c1.2,1.2,2.8,2.2,4.5,2.9c1.8,0.7,3.8,1.1,6.1,1.1c4.3,0,7.5-0.7,9.7-2.1c2.2-1.4,3.7-3.5,4.6-6.2H472.6z M468.3,324.8
					c-0.4-2.2-1-4.1-2-5.7c-0.9-1.5-2.1-2.8-3.4-3.8c-1.3-1-2.8-1.7-4.4-2.1c-1.6-0.4-3.3-0.7-5-0.7c-1.7,0-3.3,0.2-5,0.7
					c-1.6,0.4-3.1,1.1-4.5,2.1c-1.4,1-2.5,2.2-3.5,3.8c-1,1.6-1.6,3.4-1.9,5.7H468.3z"/>
				<path class="st0" d="M510.4,338.5h-0.1c-0.4,1-1,1.9-1.8,2.9c-0.9,1-1.9,1.9-3.2,2.6c-1.3,0.8-2.7,1.4-4.4,1.9
					c-1.7,0.5-3.5,0.7-5.5,0.7c-3,0-5.5-0.4-7.5-1.1c-2-0.7-3.6-1.8-4.8-3.1c-1.2-1.3-2.1-2.9-2.6-4.7c-0.5-1.8-0.8-3.8-0.8-6v-22.4
					h5.1v23.3c0,1.8,0.3,3.3,0.8,4.5c0.5,1.2,1.2,2.2,2.2,3c0.9,0.8,2.1,1.3,3.4,1.6c1.3,0.3,2.8,0.5,4.5,0.5c5,0,8.7-1.2,11.1-3.5
					c2.4-2.4,3.5-5.6,3.5-9.8v-19.6h5.1l0.1,36.1h-5.1L510.4,338.5z"/>
				<path class="st0" d="M523.4,309.4h5.1v8.3h0.1c0.5-1.1,1-2.2,1.7-3.3c0.7-1.1,1.6-2.1,2.7-3c1.1-0.9,2.4-1.6,3.9-2.2
					c1.5-0.6,3.4-0.9,5.5-0.9c1.3,0,2.4,0.1,3.1,0.3v5.3c-1.6-0.3-3.2-0.4-4.7-0.4c-1.4,0-2.8,0.2-4.3,0.7c-1.5,0.5-2.8,1.2-4,2.3
					c-1.2,1.1-2.2,2.5-2.9,4.2c-0.8,1.8-1.1,3.9-1.1,6.5l0.1,18.4h-5.1L523.4,309.4z"/>
			</g>
		</g>
	</g>
</g>
</svg>
