<?xml version="1.0" encoding="utf-8"?>
<!-- Generator: Adobe Illustrator 21.0.0, SVG Export Plug-In . SVG Version: 6.00 Build 0)  -->
<svg version="1.1" id="Calque_1" xmlns="http://www.w3.org/2000/svg" xmlns:xlink="http://www.w3.org/1999/xlink" x="0px" y="0px"
	 viewBox="0 0 246.7 87.3" style="enable-background:new 0 0 246.7 87.3;" xml:space="preserve">
<style type="text/css">
	.st0{fill:#FFFFFF;}
</style>
<g>
	<g>
		<path class="st0" d="M44.3,1.6c15,0,26.6,7.5,32,18.4l-15,10.5C57.8,21.6,50,19,43.8,19C30,19,23.5,32.1,23.5,44.3
			c0,13.4,8.1,25.6,20.6,25.6c6.4,0,14.1-3.2,17.2-11.6l16,9.4c-5,12.5-20.4,19.6-33.8,19.6c-23.4,0-39.9-22-39.9-43.6
			C3.6,23.2,18.6,1.6,44.3,1.6z"/>
		<path class="st0" d="M142,78.3c-6.1,6.1-12.7,8.8-20.6,8.8c-21.3,0-38.9-20.4-38.9-43.4c0-23.3,17.6-42.2,40.4-42.2
			c14.9,0,26.6,7.1,32.2,18.4l-14.6,10.9c-3.4-7.5-10.6-12-18.2-12c-11.9,0-20,11.3-20,25.6c0,14.6,8.6,25.3,20.7,25.3
			c6.9,0,13.4-3.4,18.9-10.3v-2.9h-16.3V42.4h32.5v44.1H142V78.3z"/>
		<path class="st0" d="M225.2,45.3V2.1h19.5v43.2c0,23.3-11.4,42-37.4,42c-27,0-37.4-19.9-37.4-42V2.1h19.5v43.2
			c0,12.8,4.8,24.6,17.9,24.6C220.7,69.9,225.2,57.8,225.2,45.3z"/>
	</g>
</g>
</svg>
